<svg xmlns="http://www.w3.org/2000/svg" viewBox="0 0 875 505" font-family="system-ui, -apple-system, sans-serif">
  <rect width="875" height="505" fill="white"/>
  <text x="395.0" y="20" text-anchor="middle" fill="#111827" font-size="13" font-weight="700">PUB/SUB throughput: TCP loopback, 2-process (pure Ruby + YJIT vs Rust (omq-tokio) vs FFI (libzmq))</text>
  <text x="395.0" y="36" text-anchor="middle" fill="#9ca3af" font-size="10">Intel(R) Core(TM) i7-8700B CPU @ 3.20GHz, 6 cores</text>
  <line x1="90" y1="342.0" x2="700" y2="342.0" stroke="#e5e7eb" stroke-width="1"/>
  <text x="82" y="342.0" text-anchor="end" dominant-baseline="middle" fill="#374151" font-size="10">100%</text>
  <line x1="90" y1="269.0" x2="700" y2="269.0" stroke="#e5e7eb" stroke-width="1"/>
  <text x="82" y="269.0" text-anchor="end" dominant-baseline="middle" fill="#374151" font-size="10">200%</text>
  <line x1="90" y1="196.0" x2="700" y2="196.0" stroke="#e5e7eb" stroke-width="1"/>
  <text x="82" y="196.0" text-anchor="end" dominant-baseline="middle" fill="#374151" font-size="10">300%</text>
  <line x1="90" y1="123.0" x2="700" y2="123.0" stroke="#e5e7eb" stroke-width="1"/>
  <text x="82" y="123.0" text-anchor="end" dominant-baseline="middle" fill="#374151" font-size="10">400%</text>
  <line x1="90" y1="50.0" x2="700" y2="50.0" stroke="#e5e7eb" stroke-width="1"/>
  <text x="82" y="50.0" text-anchor="end" dominant-baseline="middle" fill="#374151" font-size="10">500%</text>
  <line x1="90" y1="415.0" x2="700" y2="415.0" stroke="#e5e7eb" stroke-width="1" stroke-dasharray="3,6"/>
  <text x="708" y="415.0" text-anchor="start" dominant-baseline="middle" fill="#6b7280" font-size="10">1.0 MB/s</text>
  <line x1="90" y1="381.7" x2="700" y2="381.7" stroke="#e5e7eb" stroke-width="1" stroke-dasharray="3,6"/>
  <text x="708" y="381.7" text-anchor="start" dominant-baseline="middle" fill="#6b7280" font-size="10">2.0 MB/s</text>
  <line x1="90" y1="337.7" x2="700" y2="337.7" stroke="#e5e7eb" stroke-width="1" stroke-dasharray="3,6"/>
  <text x="708" y="337.7" text-anchor="start" dominant-baseline="middle" fill="#6b7280" font-size="10">5.0 MB/s</text>
  <line x1="90" y1="304.4" x2="700" y2="304.4" stroke="#e5e7eb" stroke-width="1" stroke-dasharray="3,6"/>
  <text x="708" y="304.4" text-anchor="start" dominant-baseline="middle" fill="#6b7280" font-size="10">10 MB/s</text>
  <line x1="90" y1="271.1" x2="700" y2="271.1" stroke="#e5e7eb" stroke-width="1" stroke-dasharray="3,6"/>
  <text x="708" y="271.1" text-anchor="start" dominant-baseline="middle" fill="#6b7280" font-size="10">20 MB/s</text>
  <line x1="90" y1="227.1" x2="700" y2="227.1" stroke="#e5e7eb" stroke-width="1" stroke-dasharray="3,6"/>
  <text x="708" y="227.1" text-anchor="start" dominant-baseline="middle" fill="#6b7280" font-size="10">50 MB/s</text>
  <line x1="90" y1="193.9" x2="700" y2="193.9" stroke="#e5e7eb" stroke-width="1" stroke-dasharray="3,6"/>
  <text x="708" y="193.9" text-anchor="start" dominant-baseline="middle" fill="#6b7280" font-size="10">100 MB/s</text>
  <line x1="90" y1="160.6" x2="700" y2="160.6" stroke="#e5e7eb" stroke-width="1" stroke-dasharray="3,6"/>
  <text x="708" y="160.6" text-anchor="start" dominant-baseline="middle" fill="#6b7280" font-size="10">200 MB/s</text>
  <line x1="90" y1="116.6" x2="700" y2="116.6" stroke="#e5e7eb" stroke-width="1" stroke-dasharray="3,6"/>
  <text x="708" y="116.6" text-anchor="start" dominant-baseline="middle" fill="#6b7280" font-size="10">500 MB/s</text>
  <line x1="90" y1="83.3" x2="700" y2="83.3" stroke="#e5e7eb" stroke-width="1" stroke-dasharray="3,6"/>
  <text x="708" y="83.3" text-anchor="start" dominant-baseline="middle" fill="#6b7280" font-size="10">1000 MB/s</text>
  <line x1="90" y1="50.0" x2="700" y2="50.0" stroke="#e5e7eb" stroke-width="1" stroke-dasharray="3,6"/>
  <text x="708" y="50.0" text-anchor="start" dominant-baseline="middle" fill="#6b7280" font-size="10">2.0 GB/s</text>
  <text x="788" y="415.0" text-anchor="start" dominant-baseline="middle" fill="#9ca3af" font-size="10">20K/s</text>
  <text x="788" y="342.4" text-anchor="start" dominant-baseline="middle" fill="#9ca3af" font-size="10">50K/s</text>
  <text x="788" y="287.4" text-anchor="start" dominant-baseline="middle" fill="#9ca3af" font-size="10">100K/s</text>
  <text x="788" y="232.5" text-anchor="start" dominant-baseline="middle" fill="#9ca3af" font-size="10">200K/s</text>
  <text x="788" y="159.9" text-anchor="start" dominant-baseline="middle" fill="#9ca3af" font-size="10">500K/s</text>
  <text x="788" y="104.9" text-anchor="start" dominant-baseline="middle" fill="#9ca3af" font-size="10">1.0M/s</text>
  <text x="788" y="50.0" text-anchor="start" dominant-baseline="middle" fill="#9ca3af" font-size="10">2.0M/s</text>
  <line x1="90.0" y1="50" x2="90.0" y2="415" stroke="#e5e7eb" stroke-width="1"/>
  <line x1="140.8" y1="50" x2="140.8" y2="415" stroke="#e5e7eb" stroke-width="1"/>
  <line x1="191.7" y1="50" x2="191.7" y2="415" stroke="#e5e7eb" stroke-width="1"/>
  <line x1="242.5" y1="50" x2="242.5" y2="415" stroke="#e5e7eb" stroke-width="1"/>
  <line x1="293.3" y1="50" x2="293.3" y2="415" stroke="#e5e7eb" stroke-width="1"/>
  <line x1="344.2" y1="50" x2="344.2" y2="415" stroke="#e5e7eb" stroke-width="1"/>
  <line x1="395.0" y1="50" x2="395.0" y2="415" stroke="#e5e7eb" stroke-width="1"/>
  <line x1="445.8" y1="50" x2="445.8" y2="415" stroke="#e5e7eb" stroke-width="1"/>
  <line x1="496.7" y1="50" x2="496.7" y2="415" stroke="#e5e7eb" stroke-width="1"/>
  <line x1="547.5" y1="50" x2="547.5" y2="415" stroke="#e5e7eb" stroke-width="1"/>
  <line x1="598.3" y1="50" x2="598.3" y2="415" stroke="#e5e7eb" stroke-width="1"/>
  <line x1="649.2" y1="50" x2="649.2" y2="415" stroke="#e5e7eb" stroke-width="1"/>
  <line x1="700.0" y1="50" x2="700.0" y2="415" stroke="#e5e7eb" stroke-width="1"/>
  <line x1="90" y1="50" x2="90" y2="415" stroke="#9ca3af" stroke-width="1.5"/>
  <line x1="700" y1="50" x2="700" y2="415" stroke="#9ca3af" stroke-width="1.5"/>
  <line x1="90" y1="415" x2="700" y2="415" stroke="#9ca3af" stroke-width="1.5"/>
  <line x1="780" y1="50" x2="780" y2="415" stroke="#d1d5db" stroke-width="1"/>
  <text x="40" y="232.5" text-anchor="middle" fill="#374151" font-size="10" font-weight="600" transform="rotate(-90,40,232.5)">CPU %</text>
  <polyline points="90.0,296.0 140.8,296.8 191.7,296.4 242.5,296.4 293.3,296.0 344.2,296.0 395.0,304.1 445.8,301.5 496.7,297.9 547.5,297.5 598.3,298.6 649.2,299.3 700.0,300.1" fill="none" stroke="#eab308" stroke-width="2" stroke-dasharray="2,3"/>
  <polyline points="90.0,207.7 140.8,214.0 191.7,209.5 242.5,209.5 293.3,209.2 344.2,209.5 395.0,211.7 445.8,212.8 496.7,214.3 547.5,221.2 598.3,227.2 649.2,223.8 700.0,218.7" fill="none" stroke="#dc2626" stroke-width="2" stroke-dasharray="2,3"/>
  <polyline points="90.0,52.0 140.8,197.8 191.7,134.8 242.5,204.6 293.3,199.8 344.2,103.4 395.0,227.0 445.8,228.6 496.7,237.8 547.5,232.4 598.3,214.7 649.2,214.3 700.0,211.0" fill="none" stroke="#7c3aed" stroke-width="2" stroke-dasharray="2,3"/>
  <polyline points="90.0,334.0 140.8,300.8 191.7,268.2 242.5,235.8 293.3,204.2 344.2,176.2 395.0,151.5 445.8,127.6 496.7,102.5 547.5,83.0 598.3,68.8 649.2,60.4 700.0,58.6" fill="none" stroke="#eab308" stroke-width="2.5" stroke-linecap="round" stroke-linejoin="round"/>
  <circle cx="90.0" cy="334.0" r="3" fill="#eab308" stroke="white" stroke-width="1"/>
  <circle cx="140.8" cy="300.8" r="3" fill="#eab308" stroke="white" stroke-width="1"/>
  <circle cx="191.7" cy="268.2" r="3" fill="#eab308" stroke="white" stroke-width="1"/>
  <circle cx="242.5" cy="235.8" r="3" fill="#eab308" stroke="white" stroke-width="1"/>
  <circle cx="293.3" cy="204.2" r="3" fill="#eab308" stroke="white" stroke-width="1"/>
  <circle cx="344.2" cy="176.2" r="3" fill="#eab308" stroke="white" stroke-width="1"/>
  <circle cx="395.0" cy="151.5" r="3" fill="#eab308" stroke="white" stroke-width="1"/>
  <circle cx="445.8" cy="127.6" r="3" fill="#eab308" stroke="white" stroke-width="1"/>
  <circle cx="496.7" cy="102.5" r="3" fill="#eab308" stroke="white" stroke-width="1"/>
  <circle cx="547.5" cy="83.0" r="3" fill="#eab308" stroke="white" stroke-width="1"/>
  <circle cx="598.3" cy="68.8" r="3" fill="#eab308" stroke="white" stroke-width="1"/>
  <circle cx="649.2" cy="60.4" r="3" fill="#eab308" stroke="white" stroke-width="1"/>
  <circle cx="700.0" cy="58.6" r="3" fill="#eab308" stroke="white" stroke-width="1"/>
  <polyline points="90.0,322.8 140.8,255.6 191.7,257.2 242.5,227.4 293.3,196.7 344.2,165.9 395.0,136.6 445.8,103.7 496.7,83.9 547.5,61.9 598.3,52.0 649.2,50.5 700.0,50.1" fill="none" stroke="#dc2626" stroke-width="2.5" stroke-linecap="round" stroke-linejoin="round"/>
  <circle cx="90.0" cy="322.8" r="3" fill="#dc2626" stroke="white" stroke-width="1"/>
  <circle cx="140.8" cy="255.6" r="3" fill="#dc2626" stroke="white" stroke-width="1"/>
  <circle cx="191.7" cy="257.2" r="3" fill="#dc2626" stroke="white" stroke-width="1"/>
  <circle cx="242.5" cy="227.4" r="3" fill="#dc2626" stroke="white" stroke-width="1"/>
  <circle cx="293.3" cy="196.7" r="3" fill="#dc2626" stroke="white" stroke-width="1"/>
  <circle cx="344.2" cy="165.9" r="3" fill="#dc2626" stroke="white" stroke-width="1"/>
  <circle cx="395.0" cy="136.6" r="3" fill="#dc2626" stroke="white" stroke-width="1"/>
  <circle cx="445.8" cy="103.7" r="3" fill="#dc2626" stroke="white" stroke-width="1"/>
  <circle cx="496.7" cy="83.9" r="3" fill="#dc2626" stroke="white" stroke-width="1"/>
  <circle cx="547.5" cy="61.9" r="3" fill="#dc2626" stroke="white" stroke-width="1"/>
  <circle cx="598.3" cy="52.0" r="3" fill="#dc2626" stroke="white" stroke-width="1"/>
  <circle cx="649.2" cy="50.5" r="3" fill="#dc2626" stroke="white" stroke-width="1"/>
  <circle cx="700.0" cy="50.1" r="3" fill="#dc2626" stroke="white" stroke-width="1"/>
  <polyline points="90.0,399.9 140.8,361.0 191.7,327.0 242.5,294.5 293.3,260.7 344.2,228.6 395.0,198.3 445.8,179.9 496.7,156.7 547.5,133.8 598.3,113.9 649.2,110.3 700.0,84.5" fill="none" stroke="#7c3aed" stroke-width="2.5" stroke-linecap="round" stroke-linejoin="round"/>
  <circle cx="90.0" cy="399.9" r="3" fill="#7c3aed" stroke="white" stroke-width="1"/>
  <circle cx="140.8" cy="361.0" r="3" fill="#7c3aed" stroke="white" stroke-width="1"/>
  <circle cx="191.7" cy="327.0" r="3" fill="#7c3aed" stroke="white" stroke-width="1"/>
  <circle cx="242.5" cy="294.5" r="3" fill="#7c3aed" stroke="white" stroke-width="1"/>
  <circle cx="293.3" cy="260.7" r="3" fill="#7c3aed" stroke="white" stroke-width="1"/>
  <circle cx="344.2" cy="228.6" r="3" fill="#7c3aed" stroke="white" stroke-width="1"/>
  <circle cx="395.0" cy="198.3" r="3" fill="#7c3aed" stroke="white" stroke-width="1"/>
  <circle cx="445.8" cy="179.9" r="3" fill="#7c3aed" stroke="white" stroke-width="1"/>
  <circle cx="496.7" cy="156.7" r="3" fill="#7c3aed" stroke="white" stroke-width="1"/>
  <circle cx="547.5" cy="133.8" r="3" fill="#7c3aed" stroke="white" stroke-width="1"/>
  <circle cx="598.3" cy="113.9" r="3" fill="#7c3aed" stroke="white" stroke-width="1"/>
  <circle cx="649.2" cy="110.3" r="3" fill="#7c3aed" stroke="white" stroke-width="1"/>
  <circle cx="700.0" cy="84.5" r="3" fill="#7c3aed" stroke="white" stroke-width="1"/>
  <polyline points="90.0,136.1 140.8,136.2 191.7,137.3 242.5,138.8 293.3,141.5 344.2,150.3 395.0,164.5 445.8,180.0 496.7,193.5 547.5,216.3 598.3,247.7 649.2,288.8 700.0,340.7" fill="none" stroke="#eab308" stroke-width="1.5" stroke-dasharray="5,3"/>
  <polyline points="90.0,117.6 140.8,61.5 191.7,119.2 242.5,124.9 293.3,129.2 344.2,133.3 395.0,139.8 445.8,140.5 496.7,162.7 547.5,181.4 598.3,220.0 649.2,272.4 700.0,326.8" fill="none" stroke="#dc2626" stroke-width="1.5" stroke-dasharray="5,3"/>
  <polyline points="90.0,244.8 140.8,235.6 191.7,234.3 242.5,235.7 293.3,234.8 344.2,236.8 395.0,241.8 445.8,266.3 496.7,282.8 547.5,300.1 598.3,322.1 649.2,371.2 700.0,383.4" fill="none" stroke="#7c3aed" stroke-width="1.5" stroke-dasharray="5,3"/>
  <text x="90.0" y="429" text-anchor="middle" fill="#374151" font-size="8.5">8 B</text>
  <text x="140.8" y="429" text-anchor="middle" fill="#374151" font-size="8.5">16 B</text>
  <text x="191.7" y="429" text-anchor="middle" fill="#374151" font-size="8.5">32 B</text>
  <text x="242.5" y="429" text-anchor="middle" fill="#374151" font-size="8.5">64 B</text>
  <text x="293.3" y="429" text-anchor="middle" fill="#374151" font-size="8.5">128 B</text>
  <text x="344.2" y="429" text-anchor="middle" fill="#374151" font-size="8.5">256 B</text>
  <text x="395.0" y="429" text-anchor="middle" fill="#374151" font-size="8.5">512 B</text>
  <text x="445.8" y="429" text-anchor="middle" fill="#374151" font-size="8.5">1 KiB</text>
  <text x="496.7" y="429" text-anchor="middle" fill="#374151" font-size="8.5">2 KiB</text>
  <text x="547.5" y="429" text-anchor="middle" fill="#374151" font-size="8.5">4 KiB</text>
  <text x="598.3" y="429" text-anchor="middle" fill="#374151" font-size="8.5">8 KiB</text>
  <text x="649.2" y="429" text-anchor="middle" fill="#374151" font-size="8.5">16 KiB</text>
  <text x="700.0" y="429" text-anchor="middle" fill="#374151" font-size="8.5">32 KiB</text>
  <line x1="90.0" y1="449" x2="104.0" y2="449" stroke="#eab308" stroke-width="2.5"/>
  <circle cx="97.0" cy="449" r="2.5" fill="#eab308"/>
  <text x="110.0" y="453" fill="#374151" font-size="11" font-weight="500">pure Ruby + YJIT</text>
  <line x1="293.3" y1="449" x2="307.3" y2="449" stroke="#dc2626" stroke-width="2.5"/>
  <circle cx="300.3" cy="449" r="2.5" fill="#dc2626"/>
  <text x="313.3" y="453" fill="#374151" font-size="11" font-weight="500">Rust (omq-tokio)</text>
  <line x1="496.7" y1="449" x2="510.7" y2="449" stroke="#7c3aed" stroke-width="2.5"/>
  <circle cx="503.7" cy="449" r="2.5" fill="#7c3aed"/>
  <text x="516.7" y="453" fill="#374151" font-size="11" font-weight="500">FFI (libzmq)</text>
  <line x1="100" y1="469" x2="114" y2="469" stroke="#6b7280" stroke-width="2" stroke-dasharray="2,3" opacity="0.7"/>
  <text x="120" y="473" fill="#6b7280" font-size="10">CPU % (left)</text>
  <line x1="245" y1="469" x2="259" y2="469" stroke="#6b7280" stroke-width="2.5"/>
  <circle cx="252" cy="469" r="2" fill="#6b7280"/>
  <text x="265" y="473" fill="#6b7280" font-size="10">MB/s (inner right)</text>
  <line x1="420" y1="469" x2="434" y2="469" stroke="#6b7280" stroke-width="1.5" stroke-dasharray="5,3"/>
  <text x="440" y="473" fill="#6b7280" font-size="10">msg/s (outer right)</text>
</svg>
